<svg width="124" height="34" viewBox="0 0 124 34" fill="none" xmlns="http://www.w3.org/2000/svg">
<path d="M1186.8 0C1171.15 0 1171.15 14 1155.61 14C1140.07 14 1139.96 0 1124.41 0C1108.87 0 1108.76 14 1093.22 14C1077.57 14 1077.57 0 1061.91 0C1046.26 0 1046.26 14 1030.72 14C1015.07 14 1015.07 0 999.522 0C983.87 0 983.87 14 968.326 14C952.783 14 952.348 0 936.804 0C921.152 0 921.152 14 905.609 14C890.065 14 889.848 0 874.304 0C858.652 0 858.652 14 843.109 14C827.456 14 827.456 0 811.804 0C796.152 0 796.152 14 780.609 14C764.956 14 764.957 0 749.413 0C733.87 0 733.652 14 718 14C702.348 14 702.348 0 686.804 0C671.152 0 671.152 14 655.609 14C639.956 14 639.956 0 624.304 0C608.652 0 608.652 14 593.109 14C577.456 14 577.457 0 561.913 0C546.261 0 546.261 14 530.717 14C515.065 14 515.065 0 499.522 0C483.87 0 483.87 14 468.217 14C452.565 14 452.565 0 436.913 0C421.261 0 421.261 14 405.609 14C389.957 14 389.956 0 374.304 0C358.652 0 358.652 14 343 14C327.348 14 327.348 0 311.696 0C296.043 0 296.043 14 280.391 14C264.739 14 264.739 0 249.087 0C233.435 0 233.435 14 217.891 14C202.239 14 202.239 0 186.587 0C170.935 0 170.935 14 155.283 14C139.63 14 139.63 0 123.978 0C108.326 0 108.326 14 92.6739 14C77.0217 14 77.0217 0 61.3696 0C46.1522 0 46.1522 14 30.5 14C14.8478 14 14.8478 0 -0.695654 0C-16.2391 0 -16.3478 14 -32 14V34H1218V14C1202.35 14 1202.35 0 1186.8 0Z" fill="white"/>
</svg>
