<svg xmlns="http://www.w3.org/2000/svg"><style>:root svg:not(:target){display:none}</style><svg viewBox="0 0 70 34" fill="none" id="badge-hit-product-tight"><path d="M12.6045 13H10.0312V3.00586H6.73584V0.864258H15.8999V3.00586H12.6045V13ZM28.7827 6.91553C28.7827 8.92432 28.2847 10.4683 27.2886 11.5474C26.2925 12.6265 24.8647 13.166 23.0054 13.166C21.146 13.166 19.7183 12.6265 18.7222 11.5474C17.7261 10.4683 17.228 8.91878 17.228 6.89893C17.228 4.87907 17.7261 3.33789 18.7222 2.27539C19.7238 1.20736 21.1571 0.67334 23.022 0.67334C24.8869 0.67334 26.3118 1.21012 27.2969 2.28369C28.2874 3.35726 28.7827 4.9012 28.7827 6.91553ZM19.9258 6.91553C19.9258 8.27132 20.1831 9.29232 20.6978 9.97852C21.2124 10.6647 21.9816 11.0078 23.0054 11.0078C25.0584 11.0078 26.085 9.64372 26.085 6.91553C26.085 4.1818 25.064 2.81494 23.022 2.81494C21.9982 2.81494 21.2262 3.16081 20.7061 3.85254C20.1859 4.53874 19.9258 5.55973 19.9258 6.91553ZM31.2979 0.864258H35.0747C36.7957 0.864258 38.0436 1.11051 38.8184 1.60303C39.5986 2.09001 39.9888 2.86751 39.9888 3.93555C39.9888 4.66048 39.8172 5.25537 39.4741 5.72021C39.1366 6.18506 38.6855 6.46452 38.1211 6.55859V6.6416C38.8903 6.81315 39.4437 7.13411 39.7812 7.60449C40.1243 8.07487 40.2959 8.7002 40.2959 9.48047C40.2959 10.5872 39.8947 11.4505 39.0923 12.0703C38.2954 12.6901 37.2108 13 35.8384 13H31.2979V0.864258ZM33.8711 5.67041H35.3652C36.0625 5.67041 36.5661 5.5625 36.876 5.34668C37.1914 5.13086 37.3491 4.77393 37.3491 4.27588C37.3491 3.81104 37.1776 3.479 36.8345 3.27979C36.4969 3.07503 35.9601 2.97266 35.2241 2.97266H33.8711V5.67041ZM33.8711 7.7124V10.875H35.5479C36.2562 10.875 36.7791 10.7394 37.1167 10.4683C37.4543 10.1971 37.623 9.78206 37.623 9.22314C37.623 8.21598 36.9036 7.7124 35.4648 7.7124H33.8711ZM50.1489 13L49.269 10.1113H44.8447L43.9648 13H41.1924L45.4756 0.814453H48.6216L52.9214 13H50.1489ZM48.6548 7.95312C47.8413 5.33561 47.382 3.85531 47.2769 3.51221C47.1772 3.16911 47.1053 2.89795 47.061 2.69873C46.8784 3.40706 46.3555 5.15853 45.4922 7.95312H48.6548ZM57.0303 6.5752H57.877C58.6683 6.5752 59.2604 6.42025 59.6533 6.11035C60.0462 5.79492 60.2427 5.33838 60.2427 4.74072C60.2427 4.13753 60.0767 3.69206 59.7446 3.4043C59.4181 3.11654 58.9035 2.97266 58.2007 2.97266H57.0303V6.5752ZM62.8408 4.64941C62.8408 5.9554 62.4313 6.95426 61.6123 7.646C60.7988 8.33773 59.6395 8.68359 58.1343 8.68359H57.0303V13H54.457V0.864258H58.3335C59.8055 0.864258 60.9233 1.18245 61.687 1.81885C62.4562 2.44971 62.8408 3.39323 62.8408 4.64941ZM10.604 30H8.03906V24.7622H3.23291V30H0.659668V17.8643H3.23291V22.6206H8.03906V17.8643H10.604V30ZM20.6646 30H13.6753V17.8643H20.6646V19.9727H16.2485V22.6372H20.3574V24.7456H16.2485V27.875H20.6646V30ZM21.7603 27.8584H22.6982C23.5007 26.2536 24.1343 24.6515 24.5991 23.0522C25.064 21.4474 25.4098 19.7181 25.6367 17.8643H32.709V27.8584H34.3276V33.5361H31.8457V30H24.2422V33.5361H21.7603V27.8584ZM27.6787 20.0059C27.5016 21.2731 27.2056 22.6151 26.7905 24.0317C26.381 25.4484 25.9189 26.724 25.4043 27.8584H30.144V20.0059H27.6787ZM43.1929 30H36.2036V17.8643H43.1929V19.9727H38.7769V22.6372H42.8857V24.7456H38.7769V27.875H43.1929V30ZM55.3369 30H52.772V20.0059H49.8003L49.6675 21.1182C49.3244 23.946 49.02 25.9326 48.7544 27.0781C48.4943 28.2181 48.1125 29.0205 47.6089 29.4854C47.1053 29.9502 46.4246 30.1771 45.5669 30.166C45.1021 30.166 44.6925 30.1051 44.3384 29.9834V27.875C44.6593 27.9857 44.9609 28.041 45.2432 28.041C45.5365 28.041 45.7689 27.9082 45.9404 27.6426C46.112 27.3714 46.2725 26.8734 46.4219 26.1484C46.5768 25.418 46.7788 24.2254 47.0278 22.5708C47.2824 20.9106 47.4982 19.3418 47.6753 17.8643H55.3369V30ZM58.3999 17.8643H60.7158V23.7246L60.6826 25.2935L60.5996 27.0781H60.6494L66.2524 17.8643H69.332V30H67.041V24.1729C67.041 23.3926 67.0908 22.236 67.1904 20.7031H67.124L61.4961 30H58.3999V17.8643Z" fill="#63D1BB"></path></svg><svg viewBox="0 0 132 17" fill="none" id="badge-hit-product"><path d="M6.20898 12.5H3.63574V2.50586H0.340332V0.364258H9.50439V2.50586H6.20898V12.5ZM22.3872 6.41553C22.3872 8.42432 21.8892 9.96826 20.8931 11.0474C19.897 12.1265 18.4692 12.666 16.6099 12.666C14.7505 12.666 13.3228 12.1265 12.3267 11.0474C11.3306 9.96826 10.8325 8.41878 10.8325 6.39893C10.8325 4.37907 11.3306 2.83789 12.3267 1.77539C13.3283 0.707357 14.7616 0.17334 16.6265 0.17334C18.4914 0.17334 19.9163 0.710124 20.9014 1.78369C21.8919 2.85726 22.3872 4.4012 22.3872 6.41553ZM13.5303 6.41553C13.5303 7.77132 13.7876 8.79232 14.3022 9.47852C14.8169 10.1647 15.5861 10.5078 16.6099 10.5078C18.6629 10.5078 19.6895 9.14372 19.6895 6.41553C19.6895 3.6818 18.6685 2.31494 16.6265 2.31494C15.6027 2.31494 14.8307 2.66081 14.3105 3.35254C13.7904 4.03874 13.5303 5.05973 13.5303 6.41553ZM24.9023 0.364258H28.6792C30.4002 0.364258 31.6481 0.610514 32.4229 1.10303C33.2031 1.59001 33.5933 2.36751 33.5933 3.43555C33.5933 4.16048 33.4217 4.75537 33.0786 5.22021C32.741 5.68506 32.29 5.96452 31.7256 6.05859V6.1416C32.4948 6.31315 33.0482 6.63411 33.3857 7.10449C33.7288 7.57487 33.9004 8.2002 33.9004 8.98047C33.9004 10.0872 33.4992 10.9505 32.6968 11.5703C31.8999 12.1901 30.8153 12.5 29.4429 12.5H24.9023V0.364258ZM27.4756 5.17041H28.9697C29.667 5.17041 30.1706 5.0625 30.4805 4.84668C30.7959 4.63086 30.9536 4.27393 30.9536 3.77588C30.9536 3.31104 30.7821 2.979 30.439 2.77979C30.1014 2.57503 29.5646 2.47266 28.8286 2.47266H27.4756V5.17041ZM27.4756 7.2124V10.375H29.1523C29.8607 10.375 30.3836 10.2394 30.7212 9.96826C31.0588 9.6971 31.2275 9.28206 31.2275 8.72314C31.2275 7.71598 30.5081 7.2124 29.0693 7.2124H27.4756ZM43.7534 12.5L42.8735 9.61133H38.4492L37.5693 12.5H34.7969L39.0801 0.314453H42.2261L46.5259 12.5H43.7534ZM42.2593 7.45312C41.4458 4.83561 40.9865 3.35531 40.8813 3.01221C40.7817 2.66911 40.7098 2.39795 40.6655 2.19873C40.4829 2.90706 39.96 4.65853 39.0967 7.45312H42.2593ZM50.6348 6.0752H51.4814C52.2728 6.0752 52.8649 5.92025 53.2578 5.61035C53.6507 5.29492 53.8472 4.83838 53.8472 4.24072C53.8472 3.63753 53.6812 3.19206 53.3491 2.9043C53.0226 2.61654 52.508 2.47266 51.8052 2.47266H50.6348V6.0752ZM56.4453 4.14941C56.4453 5.4554 56.0358 6.45426 55.2168 7.146C54.4033 7.83773 53.244 8.18359 51.7388 8.18359H50.6348V12.5H48.0615V0.364258H51.938C53.41 0.364258 54.5278 0.682454 55.2915 1.31885C56.0607 1.94971 56.4453 2.89323 56.4453 4.14941ZM73.0967 12.5H70.5317V7.26221H65.7256V12.5H63.1523V0.364258H65.7256V5.12061H70.5317V0.364258H73.0967V12.5ZM83.1572 12.5H76.168V0.364258H83.1572V2.47266H78.7412V5.13721H82.8501V7.24561H78.7412V10.375H83.1572V12.5ZM84.2529 10.3584H85.1909C85.9933 8.75358 86.627 7.15153 87.0918 5.55225C87.5566 3.94743 87.9025 2.2181 88.1294 0.364258H95.2017V10.3584H96.8203V16.0361H94.3384V12.5H86.7349V16.0361H84.2529V10.3584ZM90.1714 2.50586C89.9943 3.77311 89.6982 5.11507 89.2832 6.53174C88.8737 7.9484 88.4116 9.22396 87.897 10.3584H92.6367V2.50586H90.1714ZM105.686 12.5H98.6963V0.364258H105.686V2.47266H101.27V5.13721H105.378V7.24561H101.27V10.375H105.686V12.5ZM117.83 12.5H115.265V2.50586H112.293L112.16 3.61816C111.817 6.44596 111.513 8.43262 111.247 9.57812C110.987 10.7181 110.605 11.5205 110.102 11.9854C109.598 12.4502 108.917 12.6771 108.06 12.666C107.595 12.666 107.185 12.6051 106.831 12.4834V10.375C107.152 10.4857 107.454 10.541 107.736 10.541C108.029 10.541 108.262 10.4082 108.433 10.1426C108.605 9.87142 108.765 9.37337 108.915 8.64844C109.069 7.91797 109.271 6.72542 109.521 5.0708C109.775 3.41064 109.991 1.8418 110.168 0.364258H117.83V12.5ZM120.893 0.364258H123.208V6.22461L123.175 7.79346L123.092 9.57812H123.142L128.745 0.364258H131.825V12.5H129.534V6.67285C129.534 5.89258 129.583 4.736 129.683 3.20312H129.617L123.989 12.5H120.893V0.364258Z" fill="#63D1BB"></path></svg><svg viewBox="0 0 47 82" fill="none" id="flag"><path d="M7.76611 4.76697V43.3337L47 24.0007L7.76611 4.76697ZM0 81.9004V0.900391H3.83261V81.9004H0Z" fill="#63D1BB"></path><path d="M3.83262 1H0V82H3.83262V1Z" fill="#231F20"></path></svg><svg viewBox="0 0 27 35" fill="none" id="htmlacademy"><path d="M13.7539 0.0444336H13.6543L0.208984 1.44443V26.1444L13.6543 34.1444L27 26.1444V1.44443L13.7539 0.0444336ZM25.1077 12.1444L13.6543 5.34443V5.24443H13.5547L13.4551 5.14443V5.24443L2.10129 12.1444V3.14443L13.5547 1.94443L25.1077 3.14443V12.1444ZM13.5547 6.84443L25.0081 13.5444L20.5263 16.1444L13.4551 11.9444V13.3444L19.3312 16.8444L18.4349 17.3444L13.4551 14.3444V15.7444L17.2397 18.0444L16.443 18.5444L13.4551 16.7444V18.1444L15.3474 19.2444L13.5547 20.3444L2.20088 13.6444L13.5547 6.84443ZM2.10129 15.1444L13.4551 21.9444V22.9444L5.58711 18.2444V19.6444L13.5547 24.4444V25.5444L5.58711 20.8444V22.2444L13.5547 27.0444L21.6219 22.1444V16.9444L25.0081 14.9444V24.9444L13.5547 31.8444L2.10129 25.0444V15.1444Z" fill="currentColor"></path></svg><svg viewBox="0 0 50 26" fill="none" id="huge-arrow"><path d="M0 11H42.3L34.2 2.8L37 0L50 13L37 26L34.2 23.2L42.3 15H0V11Z" fill="black"></path></svg><svg viewBox="0 0 21 18" fill="none" id="icon-cart"><path d="M20.1884 6.85716H16.6377L13.1884 0.380944C12.9855 -8.61287e-06 12.5797 -0.0952351 12.1739 0.0952412C11.7681 0.285717 11.6667 0.66667 11.8696 1.04762L15.0145 6.85716H5.7826L8.92753 1.04762C9.13043 0.66667 8.92754 0.285717 8.6232 0.0952412C8.2174 -0.0952351 7.8116 0.0952295 7.6087 0.380944L4.1594 6.85716H0.811583C0.405785 6.85716 0 7.14286 0 7.61905C0 8 0.304336 8.38094 0.811583 8.38094H1.01449L1.92753 11.2381C1.72463 11.3333 1.62317 11.5238 1.62317 11.8095C1.62317 12.1905 1.92753 12.4762 2.33332 12.4762L4.05797 18H16.942L18.6667 12.4762C19.0725 12.4762 19.3768 12.1905 19.3768 11.8095C19.3768 11.619 19.2754 11.3333 19.0725 11.2381L19.9855 8.38094H20.1884C20.5942 8.38094 21 8.09524 21 7.61905C21 7.14286 20.5942 6.85716 20.1884 6.85716ZM15.6232 16.4762H5.07247L3.85506 12.381H16.942L15.6232 16.4762ZM17.2464 10.9524H3.34782L2.53623 8.28573H18.058L17.2464 10.9524Z" fill="currentColor"></path></svg><svg viewBox="0 0 47 27" fill="none" id="icon-cheap"><path d="M43.0665 0H3.93347C1.71459 0 0 1.68132 0 3.85714V23.1429C0 25.3187 1.71459 27 3.93347 27H43.0665C45.2854 27 47 25.3187 47 23.1429V3.85714C47 1.78022 45.1845 0 43.0665 0ZM3.02575 24.7253V2.76923H43.5708V24.7253H3.02575Z" fill="#63D1BB"></path><path d="M6.95925 20.8683H39.6374V6.62659H6.95925V20.8683ZM23.5 8.50571C26.4249 8.50571 28.8455 10.8793 28.8455 13.7475C28.8455 16.6156 26.4249 18.9892 23.5 18.9892C20.5751 18.9892 18.1545 16.6156 18.1545 13.7475C18.1545 10.7804 20.5751 8.50571 23.5 8.50571Z" fill="#63D1BB"></path></svg><svg viewBox="0 0 52 52" fill="none" id="icon-check"><path d="M42.3704 17.3568L41.0098 16L21.5739 35.2863L11.9531 25.6916L10.5926 27.0485L20.2134 36.6432L21.5739 38L23.0316 36.6432L42.3704 17.3568Z" fill="black"></path></svg><svg viewBox="0 0 55 23" fill="none" id="icon-domestic"><path d="M40.9467 5.75002C37.307 4.75864 33.0607 4.06466 28.41 4.06466C25.478 4.06466 22.8493 4.26294 20.625 4.65949L13.75 0H0.10114L5.9651 6.14656H14.4577C9.80697 7.73277 7.58272 9.61639 7.58272 9.61639V13.3836C7.58272 13.3836 9.90811 15.2672 14.5588 16.8534H5.86396L0 23H13.6489L20.5239 18.3405C22.8492 18.7371 25.3768 18.9354 28.3088 18.9354C32.8584 18.9354 37.1048 18.2414 40.8456 17.25C39.6324 15.4655 38.9246 13.5819 38.9246 11.4009C39.0257 9.4181 39.8345 7.5345 40.9467 5.75002Z" fill="#63D1BB"></path><path d="M44.4853 6.74121C43.1709 8.32742 42.4632 9.91361 42.4632 11.4998C42.4632 13.086 43.1709 14.6722 44.4853 16.2585C50.9559 14.0774 55 11.4998 55 11.4998C55 11.4998 50.9559 8.92224 44.4853 6.74121Z" fill="#63D1BB"></path></svg><svg viewBox="0 0 33 38" fill="none" id="icon-ecological"><path d="M16.5 38C25.575 38 33 30.6452 33 21.6559C23.925 21.6559 16.5 28.9086 16.5 38ZM4.74375 16.6505C4.74375 19.2043 6.80625 21.1452 9.28125 21.1452C10.2094 21.1452 11.1375 20.8387 11.8594 20.328V20.6344C11.8594 23.1882 13.9219 25.129 16.3969 25.129C18.975 25.129 20.9344 23.086 20.9344 20.6344V20.328C21.6562 20.8387 22.5844 21.1452 23.5125 21.1452C26.0906 21.1452 28.05 19.1021 28.05 16.6505C28.05 14.8118 27.0188 13.2796 25.4719 12.5645C27.0188 11.8495 28.05 10.3172 28.05 8.47849C28.05 5.92473 25.9875 3.98387 23.5125 3.98387C22.5844 3.98387 21.6562 4.29032 20.9344 4.80107V4.49462C20.9344 1.94086 18.8719 0 16.3969 0C13.8187 0 11.8594 2.04301 11.8594 4.49462V4.80107C11.1375 4.29032 10.2094 3.98387 9.28125 3.98387C6.70312 3.98387 4.74375 6.02688 4.74375 8.47849C4.74375 10.3172 5.775 11.8495 7.32188 12.5645C5.87813 13.2796 4.74375 14.8118 4.74375 16.6505ZM16.5 7.96774C19.0781 7.96774 21.0375 10.0108 21.0375 12.4624C21.0375 15.0161 18.975 16.957 16.5 16.957C13.9219 16.957 11.9625 14.914 11.9625 12.4624C11.9625 10.0108 13.9219 7.96774 16.5 7.96774ZM0 21.6559C0 30.6452 7.425 38 16.5 38C16.5 28.9086 9.075 21.6559 0 21.6559Z" fill="#63D1BB"></path></svg><svg viewBox="0 0 33 32" fill="none" id="icon-gift"><path d="M3.02752 32H15.6422V18.2716H3.02752V32ZM31.3853 8.69136H24.0183C24.5229 8.39506 25.0275 8.19753 25.4312 7.90123C27.0459 6.81481 27.8532 5.33333 27.8532 3.95062C27.8532 2.76543 27.2477 1.77777 26.4404 1.08641C25.633 0.395053 24.5229 0 23.4128 0C22.2018 0 20.9908 0.395053 20.0826 1.08641C18.5688 2.07406 17.4587 3.55555 16.6514 5.1358C16.6514 5.23456 16.5505 5.33333 16.5505 5.33333C16.2477 4.74073 15.945 4.14814 15.5413 3.55555C14.8349 2.56789 14.0275 1.679 13.0183 1.08641C12.0092 0.493818 10.8991 0 9.68807 0C8.47706 0 7.36697 0.49383 6.45871 1.28395C5.65137 2.07408 5.04587 3.16049 5.04587 4.34567C5.04587 5.03703 5.2477 5.82715 5.65137 6.51851C6.25687 7.4074 7.06422 8.09877 8.27523 8.69136H1.61467C0.706413 8.69136 0 9.38271 0 10.2716V16.0988H15.5413V8.69136H17.4587V16.0988H33V10.2716C33 9.38271 32.2936 8.69136 31.3853 8.69136ZM8.88073 6.41975C8.27522 6.02469 7.87155 5.62962 7.66972 5.33333C7.46788 4.93826 7.36696 4.64197 7.36696 4.34567C7.36696 3.85184 7.56881 3.35802 8.0734 2.86419C8.47707 2.46913 9.08256 2.17284 9.68807 2.17284C10.3945 2.17284 11.1009 2.37036 11.7064 2.86419C12.7156 3.55555 13.7248 4.64196 14.3303 6.02468C14.633 6.71604 14.9358 7.4074 15.1376 8.09876C12.0092 7.80246 9.99082 7.11111 8.88073 6.41975ZM19.4771 4.8395C20.0826 4.04938 20.6881 3.35802 21.3945 2.96296C22.1009 2.46914 22.8073 2.27161 23.4128 2.27161C24.0183 2.27161 24.5229 2.46914 24.9266 2.76543C25.3303 3.06173 25.5321 3.45679 25.5321 3.95062C25.5321 4.44444 25.2294 5.23456 24.0183 6.02468C22.9083 6.8148 20.8899 7.7037 17.8624 8.29629C18.1651 7.1111 18.7706 5.82715 19.4771 4.8395ZM17.4587 32H30.0734V18.2716H17.4587V32Z" fill="#63D1BB"></path></svg><svg viewBox="0 0 40 62" fill="none" id="icon-interior"><g><path d="M15.162 37.7172C14.8628 38.7124 14.9625 39.9067 15.162 41.2999C15.6608 43.8874 16.8578 47.2711 17.5561 50.9533H22.6433C23.3416 47.3706 24.5386 43.987 25.1371 41.2999C25.4364 39.9067 25.4364 38.6129 25.1371 37.7172C24.8379 36.8216 24.2394 36.1249 23.1421 35.4283H17.1571C15.96 36.1249 15.3615 36.8216 15.162 37.7172Z" fill="currentColor"></path><path d="M26.9327 57.6212H13.1671C11.8704 57.6212 10.8729 58.6164 10.8729 59.8106V62H13.1671H26.9327H29.227V59.8106C29.227 58.6164 28.2295 57.6212 26.9327 57.6212Z" fill="currentColor"></path><path d="M34.015 2.18943H22.3441C22.3441 0.995196 21.3466 0 20.0499 0C18.7531 0 17.7556 0.995196 17.7556 2.18943H6.08478L0 27.5669C0.798005 27.0693 1.59602 26.5717 2.59352 26.5717C3.99003 26.5717 4.78803 27.3679 5.48629 27.965C6.18454 28.5621 6.68329 28.7611 6.88279 28.7611C7.18204 28.7611 7.68079 28.4626 8.37905 27.965C9.0773 27.4674 9.97505 26.5717 11.2718 26.5717C12.5686 26.5717 13.4663 27.3679 14.1646 27.965C14.8628 28.4626 15.3616 28.7611 15.6608 28.7611C15.7606 28.7611 15.9601 28.6616 16.2593 28.5621C16.4588 28.4626 16.7581 28.164 17.1571 27.965C17.6559 27.5669 18.2544 26.9698 19.1521 26.7707C19.4514 26.6712 19.7506 26.6712 20.0499 26.6712C21.3466 26.6712 22.2444 27.4674 22.9426 28.0645C23.6409 28.5621 24.1397 28.8607 24.4389 28.8607C24.7382 28.8607 25.2369 28.5621 25.8354 28.0645C26.5337 27.4674 27.4314 26.6712 28.7282 26.6712C30.1247 26.6712 30.9227 27.4674 31.621 28.0645C31.9202 28.3631 32.2194 28.5621 32.5187 28.6616C32.7182 28.7611 32.9177 28.8607 33.1172 28.8607C33.4165 28.8607 33.9152 28.5621 34.5137 27.965C35.212 27.3679 36.1097 26.5717 37.4065 26.5717C38.404 26.5717 39.202 27.0693 40 27.5669L34.015 2.18943Z" fill="currentColor"></path><path d="M23.4413 53.1428H16.5585C15.8602 53.1428 15.4612 53.6404 15.4612 54.2375C15.4612 54.8346 15.96 55.3322 16.5585 55.3322H23.4413C24.1396 55.3322 24.5385 54.8346 24.5385 54.2375C24.6383 53.6404 24.1396 53.1428 23.4413 53.1428Z" fill="currentColor"></path><path d="M20.0499 28.7605C19.9501 28.7605 19.7506 28.86 19.4514 28.9595C19.2519 29.0591 19.0524 29.2581 18.8529 29.3576V33.0398H21.1471V29.4571C20.6484 29.0591 20.2494 28.7605 20.0499 28.7605Z" fill="currentColor"></path></g></svg><svg viewBox="0 0 35 34" fill="none" id="icon-knitting"><path d="M0.305558 13.9528C-0.101853 16.0303 -0.101853 18.1079 0.305558 20.1854L4.48152 17.0196L0.305558 13.9528Z" fill="#63D1BB"></path><path d="M24.852 1.586C19.9631 -0.590493 14.2594 -0.590493 9.26857 1.98172L16.9075 7.52187L24.852 1.586Z" fill="#63D1BB"></path><path d="M34.528 13.062L29.6391 16.7225L34.6299 20.3829C35.1392 18.0086 35.1392 15.4364 34.528 13.062Z" fill="#63D1BB"></path><path d="M9.37046 32.057C14.2594 34.5303 20.2687 34.7281 25.3613 32.1559L17.1113 26.1211L9.37046 32.057Z" fill="#63D1BB"></path><path d="M8.04639 14.2488L1.73152 9.698C1.42596 10.3905 1.1204 11.083 0.916698 11.7756L6.31489 15.7328L8.04639 14.2488Z" fill="#63D1BB"></path><path d="M18.9446 24.8349L27.3983 30.9686C27.7039 30.7707 28.0095 30.5729 28.2132 30.375C28.5187 30.1772 28.8243 29.8804 29.1298 29.5836L20.6761 23.4498L18.9446 24.8349Z" fill="#63D1BB"></path><path d="M11.6112 11.5781L4.07412 6.13684C3.56486 6.6315 3.15745 7.22509 2.75003 7.81867L9.77787 12.9631L11.6112 11.5781Z" fill="#63D1BB"></path><path d="M22.5094 22.1635L30.7595 28.1983C31.2688 27.7036 31.6762 27.11 32.0836 26.5165L24.2409 20.7784L22.5094 22.1635Z" fill="#63D1BB"></path><path d="M15.176 8.90696L7.33339 3.16895C7.12969 3.26788 6.92598 3.46574 6.72228 3.56467C6.31487 3.86146 5.90746 4.15826 5.6019 4.55398L13.4446 10.1931L15.176 8.90696Z" fill="#63D1BB"></path><path d="M26.0743 19.3936L33.204 24.538C33.5095 23.8455 33.8151 23.2519 34.1206 22.5594L27.9076 18.0085L26.0743 19.3936Z" fill="#63D1BB"></path><path d="M26.8891 2.67419L0.916698 22.3615C1.1204 23.054 1.42596 23.7466 1.73152 24.4391L28.7225 3.9603C28.2132 3.46564 27.6021 3.06992 26.8891 2.67419Z" fill="#63D1BB"></path><path d="M31.2688 6.53234C30.9632 6.13661 30.6576 5.74089 30.3521 5.44409L2.85186 26.2197C3.05557 26.7143 3.36113 27.11 3.66669 27.4068C3.76854 27.6047 3.97224 27.8026 4.0741 27.9015L31.778 7.12592C31.5743 6.92806 31.4725 6.7302 31.2688 6.53234Z" fill="#63D1BB"></path><path d="M32.8984 8.90674L5.70373 29.4844C6.21299 29.9791 6.82411 30.4738 7.43522 30.8695L33.9169 10.8854C33.6114 10.1928 33.3058 9.50033 32.8984 8.90674Z" fill="#63D1BB"></path></svg><svg viewBox="0 0 34 27" fill="none" id="icon-likes"><path d="M34 8.44964C34 3.78777 29.9818 0 25.0364 0C21.5333 0 18.5455 1.94245 17 4.66187C15.5576 1.94245 12.4667 0 8.96364 0C4.01818 0 0 3.78777 0 8.44964C0 17.2878 15.1455 27 17 27C18.9576 27 34 17.3849 34 8.44964Z" fill="#63D1BB"></path></svg><svg viewBox="0 0 32 21" fill="none" id="icon-mail"><path d="M28 0H4C1.8 0 0 1.8 0 4V17C0 19.2 1.8 21 4 21H28C30.2 21 32 19.2 32 17V4C32 1.8 30.2 0 28 0ZM2 5.3L9 10.6L2 15.9V5.3ZM30 17C30 18.1 29.1 19 28 19H4C2.9 19 2 18.1 2 17L9.8 11.1L14.2 14.4C14.7 14.8 15.4 15 16 15C16.6 15 17.3 14.8 17.8 14.4L22.2 11.1L30 17ZM30 15.8L23 10.5L30 5.2V15.8ZM17.2 13.6C16.8 13.9 16.4 14 16 14C15.6 14 15.1 13.9 14.8 13.6L10.7 10.5L9.9 9.9L2 4C2 2.9 2.9 2 4 2H28C29.1 2 30 2.9 30 4L17.2 13.6Z" fill="currentColor"></path></svg><svg viewBox="0 0 25 24" fill="none" id="icon-phone"><g><path d="M17.4395 24C17.0363 24 16.7339 24 16.3306 24C11.3911 23.4074 7.7621 21.1358 5.14113 18.2717C2.52016 15.4075 0.403226 11.7532 0 6.7162C0 6.22237 0 5.82731 0 5.33349C0.100806 4.44461 0.504032 3.85202 1.10887 3.25943C1.71371 2.56808 2.72177 1.77796 3.62903 1.6792C4.33468 1.6792 5.44355 2.17302 5.84677 2.76561C6.25 3.25943 6.45161 4.34584 6.65323 5.13596C6.85484 6.02484 7.25806 7.11125 7.15726 7.90137C6.95565 9.08655 5.34274 9.58037 4.93952 10.4693C6.55242 14.1235 9.07258 16.889 12.5 18.6667C13.3065 18.1729 14.1129 16.7902 15.3226 16.7902C15.7258 16.7902 16.3306 16.9877 16.7339 17.0865C17.2379 17.1852 17.6411 17.3828 18.0444 17.5803C18.75 17.8766 20.0605 18.1729 20.4637 18.7655C20.8669 19.3581 21.1694 20.3457 21.0685 20.9383C20.7661 22.2222 18.6492 23.6049 17.4395 24Z" fill="currentColor"></path><path d="M12.6008 1.48147C18.5484 1.48147 23.4879 6.22217 23.4879 12.1481H25C25 5.43206 19.4557 0 12.6008 0V1.48147Z" fill="currentColor"></path><path d="M12.6008 9.18506V10.7653C13.4073 10.7653 14.0121 11.3579 14.0121 12.148H15.625C15.625 10.5678 14.3145 9.18506 12.6008 9.18506Z" fill="currentColor"></path><path d="M12.6008 6.12356C15.9274 6.12356 18.75 8.79021 18.75 12.1482H20.3629C20.3629 8.00009 16.9355 4.64209 12.7016 4.64209V6.12356H12.6008Z" fill="currentColor"></path></g></svg><svg viewBox="0 0 101 77" fill="none" id="icon-play"><path d="M97.0001 18.1C97.0001 18.1 96.1001 11.1 93.2001 7.99997C89.6001 3.99997 85.5001 3.89995 83.7001 3.69995C70.4001 2.69995 50.4001 2.69995 50.4001 2.69995H50.3001C50.3001 2.69995 30.3001 2.69995 17.0001 3.69995C15.1001 3.89995 11.1001 3.99997 7.50011 7.99997C4.70011 11.1 3.7001 18.1 3.7001 18.1C3.7001 18.1 2.80011 26.3 2.80011 34.5V42.2C2.80011 50.4 3.7001 58.6 3.7001 58.6C3.7001 58.6 4.60011 65.6 7.50011 68.7C11.1001 72.7 15.9001 72.6 18.0001 73C25.6001 73.8 50.4001 74 50.4001 74C50.4001 74 70.4001 74 83.7001 73C85.6001 72.8 89.6001 72.7 93.2001 68.7C96.0001 65.6 97.0001 58.6 97.0001 58.6C97.0001 58.6 97.9001 50.4 97.9001 42.2V34.5C97.9001 26.3 97.0001 18.1 97.0001 18.1Z" fill="#63D1BB"></path><path d="M50.3001 76.8C49.3001 76.8 25.3001 76.5 17.7001 75.8H17.6001H17.5001C17.2001 75.7 16.8001 75.7 16.4001 75.6C13.9001 75.3 9.2001 74.7 5.6001 70.6C2.2001 67 1.2001 59.8 1.1001 59C1.1001 58.7 0.100098 50.5 0.100098 42.3V34.6C0.100098 26.3 1.00011 18.2 1.00011 17.9V17.8C1.10011 17 2.20011 9.89998 5.50011 6.19998C9.50011 1.79998 14.0001 1.30001 16.2001 1.10001C16.4001 1.10001 16.6001 1.1 16.7001 1H16.8001C30.1001 0 50.1001 0 50.3001 0H50.4001C50.6001 0 70.6001 0 83.9001 1H84.0001C84.2001 1 84.3001 1.00001 84.5001 1.10001C86.7001 1.30001 91.2001 1.79998 95.2001 6.19998C98.6001 9.79998 99.6001 17 99.7001 17.8C99.7001 18.1 100.7 26.3 100.7 34.6V42.3C100.7 50.6 99.8001 58.7 99.7001 59V59.1C99.6001 59.9 98.5001 67.1 95.2001 70.7C91.2001 75.1 86.7001 75.6 84.5001 75.8C84.3001 75.8 84.1001 75.8 84.0001 75.9H83.9001C70.6001 76.8 50.5001 76.8 50.3001 76.8ZM18.4001 70.4C25.9001 71.1 49.6001 71.4 50.4001 71.4C51.1001 71.4 70.5001 71.4 83.4001 70.4C83.6001 70.4 83.8001 70.4 84.0001 70.3C85.8001 70.1 88.6001 69.8 91.2001 67C93.0001 65 94.1001 60.1 94.3001 58.4C94.4001 57.9 95.2001 50 95.2001 42.3V34.6C95.2001 26.8 94.3001 19 94.2001 18.5C93.9001 16.1 92.8001 11.7 91.1001 10C88.5001 7.1 85.7001 6.89998 83.9001 6.69998C83.7001 6.69998 83.5001 6.70001 83.3001 6.60001C70.2001 5.60001 50.5001 5.60001 50.3001 5.60001H50.2001C50.0001 5.60001 30.2001 5.60001 17.2001 6.60001C17.0001 6.60001 16.8001 6.59998 16.6001 6.69998C14.8001 6.89998 12.0001 7.2 9.40012 10C7.60012 12 6.50011 16.9 6.30011 18.6C6.20011 19.2 5.4001 27 5.4001 34.7V42.4C5.4001 50.1 6.30011 58 6.30011 58.5C6.60011 60.9 7.70012 65.3 9.40012 67C11.7001 69.6 14.7001 70 16.9001 70.3C17.5001 70.2 17.9001 70.3 18.4001 70.4Z" fill="white"></path><path d="M38.4004 20.5V56.2L68.2004 38.4L38.4004 20.5Z" fill="white"></path></svg><svg viewBox="0 0 18 18" fill="none" id="icon-search"><path d="M17.6932 16.0568L14.2159 12.5795C15.2386 11.25 15.75 9.61364 15.75 7.875C15.75 3.47727 12.2727 0 7.875 0C3.47727 0 0 3.47727 0 7.875C0 12.2727 3.47727 15.75 7.875 15.75C9.61364 15.75 11.25 15.1364 12.5795 14.2159L16.0568 17.6932C16.2614 17.8977 16.4659 18 16.875 18C17.4886 18 18 17.4886 18 16.875C18 16.6705 17.8977 16.3636 17.6932 16.0568ZM2.25 7.875C2.25 4.80682 4.80682 2.25 7.875 2.25C10.9432 2.25 13.5 4.80682 13.5 7.875C13.5 10.9432 10.9432 13.5 7.875 13.5C4.80682 13.5 2.25 10.9432 2.25 7.875Z" fill="black"></path></svg><svg viewBox="0 0 60 60" fill="none" id="icon-toys"><path d="M0 43.9933L27.4 60V36.5436L0 20.4362V43.9933ZM51.3 12.4832V15C51.3 16.8121 47.8 18.3221 43.6 18.3221C39.3 18.3221 35.9 16.8121 35.9 15V10.8725C36.2 12.5839 39.5 13.9933 43.6 13.9933C47.9 13.9933 51.3 12.4832 51.3 10.6711C51.3 8.85907 47.8 7.349 43.6 7.349C43.3 7.349 42.9 7.349 42.6 7.349L37.6 4.42954V7.55034C37.6 9.36242 34.1 10.8725 29.9 10.8725C27.2 10.8725 24.9 10.2685 23.5 9.36242C23.3 9.16108 23.1 8.95973 22.8 8.75839C22.4 8.3557 22.2 7.95302 22.2 7.55034V4.5302L17.4 7.349C17.1 7.349 16.7 7.349 16.3 7.349C12 7.349 8.60001 8.85907 8.60001 10.6711C8.60001 12.4832 12.1 13.9933 16.3 13.9933C20.4 13.9933 23.7 12.5839 24 10.8725V15C24 16.8121 20.5 18.3221 16.3 18.3221C12 18.3221 8.60001 16.8121 8.60001 15V12.5839L2.60001 16.1074L30.1 32.2148L57.5 16.2081L51.3 12.4832ZM37.7 22.7517C37.7 24.5638 34.2 26.0738 30 26.0738C25.7 26.0738 22.3 24.5638 22.3 22.7517V18.6242C22.6 20.3356 25.9 21.745 30 21.745C34.1 21.745 37.4 20.3356 37.7 18.6242V22.7517ZM32.6 36.745V60L60 43.9933V20.7383L32.6 36.745ZM29.9 6.6443C34.2 6.6443 37.6 5.13423 37.6 3.32215C37.6 1.51007 34.1 0 29.9 0C25.6 0 22.2 1.51007 22.2 3.32215C22.2 5.13423 25.6 6.6443 29.9 6.6443Z" fill="currentColor"></path></svg><svg viewBox="0 0 32 22" fill="none" id="icon-videocamera"><path d="M26 10L32 6V22L26 18V10ZM24 10V18C24 20.2 22.2 22 20 22H4C1.8 22 0 20.2 0 18V10C0 7.8 1.8 6 4 6H14C14 4.9 14.9 4 16 4V2H5C4.4 2 4 1.6 4 1C4 0.4 4.4 0 5 0H17C17.6 0 18 0.4 18 1V4C19.1 4 20 4.9 20 6C22.2 6 24 7.8 24 10ZM12 10H4V18H12V10ZM20 11C20 10.4 19.6 10 19 10H15C14.4 10 14 10.4 14 11C14 11.6 14.4 12 15 12H19C19.6 12 20 11.6 20 11Z" fill="#63D1BB"></path></svg><svg viewBox="0 0 102 35" fill="none" id="logo-footer"><path d="M19.2204 21.5C19.1204 18.8 18.7204 16.2 18.7204 13.5C18.7204 11.3 19.1204 9.09997 18.3204 6.99997C18.3204 6.79997 18.4204 6.49997 18.4204 6.29997C18.6204 5.29997 15.1204 5.79997 14.6204 6.79997C14.3204 7.09997 14.1204 7.39997 14.2204 7.79997C14.2204 7.89997 14.3204 7.99997 14.3204 8.09997C13.6204 11.3 12.7204 14.4 11.7204 17.5C11.3204 18.7 10.8204 19.8 10.4204 21C9.82041 19.9 9.22041 18.8 8.82041 17.6C7.42041 14.2 6.22041 10.7 4.52041 7.39997C4.72041 5.89997 1.32041 5.99997 0.620408 7.39997C-0.179592 9.09997 -0.0795918 10.8 0.220408 12.6C0.520408 14.6 0.620408 16.6 0.620408 18.7C0.620408 22.7 1.02041 26.6 1.02041 30.6C0.620408 31 0.520408 31.5 0.920408 32C1.12041 32.2 1.32041 32.4 1.52041 32.5C2.52041 33.2 5.12041 32.6 5.12041 31.2C5.12041 27.1 4.82041 23 4.72041 18.8C4.72041 18.4 4.72041 18 4.72041 17.6C4.82041 17.7 4.82041 17.9 4.92041 18C5.52041 19.6 6.22041 21.2 7.12041 22.7C8.02041 24.2 8.42041 25.8 8.92041 27.4C8.72041 27.6 8.62041 27.9 8.72041 28.1C8.72041 28.3 8.82041 28.4 9.02041 28.5C9.62041 29 10.8204 28.8 11.5204 28.5C11.8204 28.4 12.1204 28.2 12.3204 28.1C12.6204 27.9 13.2204 27.4 13.0204 26.9C13.0204 26.8 12.9204 26.7 12.9204 26.6C13.4204 25.3 13.6204 24 13.9204 22.7C14.2204 21.3 14.7204 19.9 15.2204 18.6C15.3204 19.2 15.3204 19.8 15.4204 20.5C15.6204 23.1 15.4204 25.6 15.4204 28.1C15.4204 28.9 15.5204 29.7 15.6204 30.6C15.7204 30.9 16.0204 32.4 15.9204 32.5C15.1204 33 15.3204 33.6 16.1204 33.8C17.0204 34 18.2204 33.7 18.9204 33.1C20.1204 32 19.5204 30.3 19.3204 28.9C18.8204 26.5 19.3204 23.9 19.2204 21.5Z" fill="currentColor"></path><path d="M27.6204 22.2001C27.5204 20.2001 26.8204 18.3001 26.8204 16.3001C26.8204 14.0001 27.0204 11.7001 26.6204 9.40009C26.5204 8.70009 22.5204 9.50009 22.7204 10.4001C23.0204 12.5001 22.9204 14.6001 22.9204 16.8001C22.9204 18.8001 23.4204 20.7001 23.6204 22.7001C23.9204 24.8001 23.5204 26.9001 23.7204 28.9001C23.8204 29.9001 24.5204 31.6001 23.8204 32.5001C23.4204 33.0001 25.3204 32.8001 25.4204 32.8001C26.2204 32.7001 27.2204 32.4001 27.7204 31.8001C28.4204 31.0001 27.9204 29.4001 27.8204 28.4001C27.5204 26.4001 27.7204 24.2001 27.6204 22.2001Z" fill="currentColor"></path><path d="M43.9203 18.9C41.8203 16.1 38.0203 18.1 35.3203 17.4C33.9203 17 33.9203 15.1 33.9203 14C33.9203 12.6 33.8203 11.3 33.6203 9.90003C33.5203 8.80003 33.6203 7.80004 34.3203 7.00004C34.4203 6.90004 35.2203 6.70003 35.1203 6.70003C35.5203 6.60003 35.8203 6.60003 36.2203 6.60003C37.7203 6.50003 40.8203 6.80004 40.2203 9.10004C39.9203 10.1 43.8203 9.50004 44.1203 8.50004C45.3203 3.90004 36.8203 4.80004 34.4203 5.40004C32.2203 6.00004 29.8203 7.20004 29.6203 9.80003C29.5203 11 29.9203 12.2 29.9203 13.4C30.0203 14.8 29.7203 16.2 30.2203 17.5C31.3203 20.5 35.7203 19.1 38.0203 19.2C41.8203 19.5 40.7203 24.7 40.7203 27.1C40.7203 28.4 41.9203 30.5 40.9203 31.6C40.3203 32.3 38.9203 32.3 38.1203 32.4C37.3203 32.5 35.9203 32.7 35.4203 31.9C34.4203 30.5 35.5203 28.1 35.3203 26.5C35.2203 25.6 31.2203 26.4 31.4203 27.5C31.7203 30.1 30.0203 33.6 33.8203 34.1C36.2203 34.4 39.0203 33.9 41.3203 33.2C42.5203 32.8 43.6203 32.3 44.5203 31.4C45.5203 30.5 45.2203 29.1 44.9203 27.9C44.4203 24.8 45.8203 21.4 43.9203 18.9Z" fill="currentColor"></path><path d="M61.3204 18.7001C61.2204 14.9001 60.6204 11.2001 60.6204 7.40009C60.6204 5.40009 56.6204 6.10009 56.6204 7.70009C56.6204 11.3001 57.1204 14.9001 57.3204 18.5001C57.3204 18.6001 57.3204 18.6001 57.3204 18.7001C55.4204 18.7001 53.4204 18.9001 51.4204 18.9001C51.6204 14.3001 50.8204 9.70009 51.0204 5.00009C51.0204 4.40009 47.1204 4.90009 47.1204 6.00009C46.9204 10.5001 47.7204 14.9001 47.6204 19.4001C47.5204 21.5001 47.4204 23.7001 47.3204 25.8001C47.3204 26.9001 47.5204 28.0001 47.6204 29.1001C47.7204 30.1001 48.1204 31.4001 47.8204 32.4001C47.6204 33.2001 51.4204 32.7001 51.7204 31.7001C52.2204 29.9001 51.5204 27.7001 51.3204 25.9001C51.1204 24.2001 51.3204 22.4001 51.4204 20.7001C53.4204 20.6001 55.5204 20.4001 57.5204 20.7001C57.6204 22.1001 57.7204 23.5001 57.8204 24.8001C57.9204 26.0001 58.0204 27.1001 58.0204 28.3001C58.0204 29.3001 58.1204 30.8001 57.8204 31.8001C57.0204 33.9001 60.9204 33.7001 61.5204 32.2001C62.2204 30.3001 62.0204 28.0001 61.9204 26.0001C61.7204 23.5001 61.3204 21.1001 61.3204 18.7001Z" fill="currentColor"></path><path d="M78.2205 23.0999C77.3205 20.2999 75.8205 17.8999 74.6205 15.2999C75.6205 13.3999 76.6205 11.3999 77.5205 9.39992C78.3205 7.59992 78.9205 5.59992 80.6205 4.29992C81.2205 3.89992 81.2205 3.39992 80.3205 3.29992C79.4205 3.19992 78.2205 3.49992 77.5205 3.99992C76.1205 5.29992 75.1205 6.69992 74.4205 8.39992C73.5205 10.4999 72.5205 12.4999 71.5205 14.4999C71.4205 14.5999 71.4205 14.7999 71.3205 14.8999C70.8205 15.1999 70.5205 15.6999 70.7205 16.1999C69.9205 17.7999 69.1205 19.2999 68.2205 20.7999C67.9205 15.2999 67.2205 9.69992 67.0205 4.19992C67.0205 2.89992 63.0205 3.69992 63.1205 5.19992C63.3205 12.0999 64.3205 18.8999 64.4205 25.7999C64.4205 25.7999 64.4205 25.7999 64.4205 25.8999C64.1205 26.1999 64.2205 26.3999 64.5205 26.4999C64.5205 28.2999 64.4205 29.9999 64.3205 31.7999C63.8205 32.4999 64.8205 32.8999 65.4205 32.8999H65.5205C66.2205 32.8999 68.1205 32.5999 68.2205 31.4999C68.4205 29.3999 68.5205 27.2999 68.4205 25.1999C70.0205 23.4999 71.3205 21.5999 72.5205 19.5999C73.3205 21.0999 74.0205 22.5999 74.5205 24.1999C75.4205 26.8999 76.8205 29.4999 77.6205 32.1999C78.1205 33.9999 82.1205 32.8999 81.5205 31.1999C80.5205 28.3999 79.1205 25.8999 78.2205 23.0999Z" fill="currentColor"></path><path d="M101.72 18.4999C101.52 17.6999 100.32 17.6999 99.4205 17.6999C99.4205 17.3999 99.4205 16.9999 99.4205 16.6999C99.3205 13.9999 99.2205 11.2999 99.0205 8.6999C98.8205 6.1999 97.4205 5.3999 95.0205 5.4999C92.6205 5.5999 89.8205 5.9999 87.5205 6.8999C84.9205 7.8999 83.4205 9.7999 82.9205 12.5999C82.4205 15.5999 83.1205 18.7999 83.3205 21.7999C83.5205 25.2999 83.4205 28.7999 83.4205 32.2999C83.4205 32.8999 87.3205 32.2999 87.3205 31.2999C87.3205 28.4999 87.3205 25.6999 87.3205 22.9999C87.3205 22.1999 87.2205 21.3999 87.2205 20.5999C88.6205 19.9999 90.9205 20.5999 92.3205 20.6999C93.4205 20.7999 94.5205 20.4999 95.5205 20.3999C95.5205 22.6999 95.6205 24.9999 95.7205 27.2999C95.7205 28.4999 96.2205 30.7999 95.3205 31.7999C94.9205 32.2999 96.8205 32.0999 96.9205 32.0999C97.7205 31.9999 98.7205 31.6999 99.2205 31.0999C100.12 29.9999 99.7205 27.2999 99.6205 25.9999C99.5205 24.0999 99.5205 22.1999 99.5205 20.2999C100.62 20.0999 101.92 19.3999 101.72 18.4999ZM87.1205 18.3999C87.0205 17.1999 86.9205 15.8999 86.8205 14.6999C86.6205 12.3999 86.9205 9.0999 89.1205 7.6999C89.7205 7.2999 90.8205 7.3999 91.5205 7.2999C92.5205 7.0999 93.5205 6.8999 94.3205 7.4999C95.5205 8.2999 95.2205 11.1999 95.2205 12.3999C95.2205 14.3999 95.4205 16.3999 95.5205 18.3999C94.9205 18.4999 94.4205 18.4999 93.8205 18.4999C91.5205 18.2999 89.2205 17.8999 87.1205 18.3999Z" fill="currentColor"></path><path d="M24.2204 6.7C24.7204 6.6 25.2204 6.5 25.7204 6.2C25.8204 6.1 25.9204 6 25.9204 6C26.4204 5.7 26.9204 5.2 26.6204 4.6C26.1204 3.5 26.2204 2.4 26.2204 1.2C26.2204 0.2 25.2204 0 24.4204 0C23.7204 0.1 22.2204 0.6 22.2204 1.5C22.2204 2.5 22.1204 3.5 22.3204 4.5C22.3204 4.6 22.2204 4.7 22.2204 4.9C22.1204 5.1 22.2204 5.3 22.3204 5.5V5.6C22.3204 5.7 22.3204 5.8 22.3204 5.9C22.4204 6.1 22.5204 6.3 22.7204 6.4C23.3204 6.7 23.8204 6.7 24.2204 6.7Z" fill="currentColor"></path></svg><svg viewBox="0 0 86 35" fill="none" id="logo-underline"><path d="M80.6473 33.3186C79.0473 32.7186 77.3473 32.7186 75.7473 32.5186C74.1473 32.3186 72.5473 32.1186 70.8473 31.9186C69.2473 32.0186 67.5473 31.9186 65.8473 32.0186L60.9473 32.3186C54.4473 32.6186 47.9473 32.6186 41.4473 32.4186C34.9473 32.3186 28.4473 31.9186 21.8473 31.9186C18.5473 31.9186 15.2473 32.0186 11.9473 32.2186C10.3473 32.5186 8.74733 32.7186 7.04733 33.1186C5.44733 33.5186 3.94733 34.0186 2.24733 34.1186C3.84733 34.5186 5.54733 34.4186 7.24733 34.4186C8.84733 34.4186 10.4473 34.5186 12.1473 34.6186C15.3473 34.4186 18.6473 34.4186 21.8473 34.3186C28.3473 34.3186 34.8473 34.6186 41.4473 34.8186C47.9473 34.9186 54.5473 35.0186 61.1473 34.7186L66.0473 34.4186C67.6473 34.3186 69.2473 34.3186 70.8473 34.3186C72.4473 34.2186 74.1473 34.0186 75.7473 33.8186C77.4473 33.6186 78.9473 33.2186 80.6473 33.3186H80.7473V33.2186C80.7473 33.0186 80.7473 32.9186 80.7473 32.7186C80.7473 33.1186 80.7473 33.2186 80.6473 33.3186Z" fill="currentColor"></path></svg><svg viewBox="0 0 20 14" fill="none" id="menu-burger"><path d="M20 0H0V2H20V0Z" fill="#231F20"></path><path d="M20 6H0V8H20V6Z" fill="#231F20"></path><path d="M20 12H0V14H20V12Z" fill="#231F20"></path></svg><svg viewBox="0 0 21 20" fill="none" id="menu-cross"><path d="M21 1.36585L19.5659 0L10.5512 8.58537L1.43415 0L0 1.36585L9.01463 10.0488L0 18.6341L1.43415 20L10.5512 11.4146L19.5659 20L21 18.6341L11.9854 10.0488L21 1.36585Z" fill="black"></path></svg><svg viewBox="0 0 28 22" fill="none" id="telegram"><path fill-rule="evenodd" clip-rule="evenodd" d="M23.4608 3.15291C23.6393 3.30222 23.7255 3.5349 23.6872 3.76448L21.0611 19.5214C21.0244 19.7411 20.8789 19.9273 20.6745 20.0159C20.47 20.1045 20.2346 20.0833 20.0493 19.9597L12.1708 14.7074C12.0177 14.6054 11.9145 14.4437 11.8862 14.2619C11.858 14.08 11.9074 13.8947 12.0223 13.751L14.633 10.4877L10.273 13.3944C10.077 13.525 9.82597 13.5407 9.61524 13.4353L4.36293 10.8092C4.12769 10.6915 3.98535 10.4449 4.0012 10.1824C4.01705 9.91983 4.18804 9.6921 4.43573 9.60364L22.8188 3.03826C23.038 2.95998 23.2822 3.00359 23.4608 3.15291ZM6.32626 10.3228L9.86168 12.0905L17.4231 7.0495C17.6925 6.86994 18.0525 6.91349 18.2712 7.1521C18.49 7.3907 18.5022 7.75314 18.3 8.00591L13.495 14.0121L19.9328 18.3039L22.2083 4.65058L6.32626 10.3228Z" fill="currentColor"></path></svg><svg viewBox="0 0 28 22" fill="none" id="vkontakte"><path d="M1 5.33876C1 4.48373 1.5151 4.02268 2.54531 3.95562L6.51515 3.98077C6.78158 3.98077 6.95921 4.10651 7.04802 4.35799C7.45655 5.61538 7.91392 6.70094 8.42014 7.61465C8.92637 8.52835 9.58801 9.58038 10.4051 10.7707C10.4761 10.9216 10.5916 10.997 10.7514 10.997C10.8758 10.997 10.9735 10.9384 11.0445 10.821L11.1244 10.5444L11.1511 6.19379C11.1511 5.89201 11.0756 5.69083 10.9246 5.59024C10.7736 5.48964 10.4939 5.4142 10.0853 5.36391C9.76563 5.31361 9.60577 5.12919 9.60577 4.81065C9.60577 4.74359 9.61465 4.69329 9.63241 4.65976C10.0054 3.57002 11.0711 3.02515 12.8296 3.02515L14.3216 3C14.9966 3 15.5561 3.15927 16.0001 3.47781C16.4442 3.79635 16.6662 4.29931 16.6662 4.98669V10.6953C16.7906 10.7791 16.906 10.821 17.0126 10.821C17.279 10.821 17.5099 10.6701 17.7053 10.3683C19.6592 7.78649 20.716 6.05966 20.8759 5.18787C20.8759 5.1711 20.8936 5.12919 20.9291 5.06213C21.0535 4.81065 21.2577 4.5927 21.5419 4.40828C21.8261 4.22387 22.0748 4.09813 22.288 4.03107C22.359 3.99753 22.4389 3.98077 22.5277 3.98077H26.6574L26.9239 4.00592C27.2791 4.00592 27.5544 4.16519 27.7498 4.48373C27.8209 4.58432 27.8697 4.69329 27.8964 4.81065C27.923 4.92801 27.9408 5.04536 27.9496 5.16272C27.9585 5.28008 27.963 5.34714 27.963 5.36391V5.53994C27.8386 6.22732 27.5233 6.9608 27.0171 7.74038C26.5109 8.51997 25.867 9.36243 25.0855 10.2678C24.304 11.1731 23.8155 11.7682 23.6201 12.0533C23.4603 12.2544 23.3803 12.4389 23.3803 12.6065C23.3803 12.7406 23.4514 12.8915 23.5935 13.0592L27.4834 17.6864C27.6965 17.9546 27.8031 18.248 27.8031 18.5666C27.8031 18.9522 27.6432 19.2707 27.3235 19.5222C27.0038 19.7737 26.6219 19.9162 26.1779 19.9497L25.7249 19.9749H21.6752C21.6574 19.9749 21.6219 19.979 21.5686 19.9874C21.5153 19.9958 21.4798 20 21.462 20C21.0712 20 20.7071 19.8407 20.3696 19.5222C20.2453 19.3881 19.4105 18.3989 17.8652 16.5547C17.7764 16.4374 17.652 16.3284 17.4922 16.2278C17.4211 16.4961 17.3279 16.8817 17.2124 17.3846C17.097 17.8876 17.0126 18.248 16.9593 18.466L16.8794 18.8935C16.7018 19.4803 16.3287 19.8323 15.7604 19.9497L15.3874 19.9749H12.7763C11.3021 19.9749 9.83224 19.3378 8.36686 18.0636C6.90148 16.7894 5.58264 15.1423 4.41034 13.122C3.23803 11.1018 2.14566 8.75049 1.13322 6.06805C1.04441 5.8501 1 5.607 1 5.33876ZM17.0126 11.8521C16.6396 11.8521 16.3021 11.7557 16.0001 11.5629C15.6982 11.3701 15.5472 11.106 15.5472 10.7707V4.98669C15.5472 4.65138 15.4584 4.41248 15.2808 4.26997C15.1032 4.12747 14.7923 4.05621 14.3483 4.05621L12.8296 4.10651C12.0658 4.10651 11.4886 4.23225 11.0978 4.48373C11.8793 4.8358 12.2701 5.40582 12.2701 6.19379V10.6198C12.2346 11.039 12.0569 11.3868 11.7372 11.6635C11.4175 11.9401 11.0623 12.0784 10.6715 12.0784C10.1386 12.0784 9.7301 11.8353 9.44591 11.3491C8.06046 9.37081 7.03025 7.4931 6.35529 5.71598L6.1155 5.06213L2.57195 5.03698C2.34104 5.03698 2.21227 5.04956 2.18562 5.0747C2.15898 5.09985 2.14566 5.1711 2.14566 5.28846C2.14566 5.43935 2.16342 5.59862 2.19895 5.76627L2.75845 7.17456C4.25048 10.8126 5.87127 13.6795 7.62085 15.7751C9.37042 17.8708 11.0889 18.9186 12.7763 18.9186H15.4406C15.5472 18.9186 15.6271 18.8893 15.6804 18.8306C15.7337 18.7719 15.7781 18.6588 15.8136 18.4911L15.8669 18.2396L16.3732 16.0266C16.5152 15.7249 16.6396 15.5237 16.7462 15.4231C16.9415 15.2387 17.1725 15.1465 17.4389 15.1465C17.8652 15.1465 18.3003 15.3895 18.7444 15.8757L21.0091 18.5917C21.1512 18.8097 21.3022 18.9186 21.462 18.9186H25.8581C26.391 18.9186 26.6574 18.7929 26.6574 18.5414C26.6574 18.4576 26.6308 18.3738 26.5775 18.2899L22.7142 13.7382C22.4123 13.3861 22.2613 13.0089 22.2613 12.6065C22.2613 12.2041 22.4034 11.8185 22.6876 11.4497C22.9185 11.1144 23.367 10.557 24.0331 9.77737C24.6992 8.99778 25.2809 8.26849 25.7782 7.5895C26.2756 6.9105 26.6042 6.29438 26.764 5.74112L26.8439 5.4142C26.8262 5.38067 26.8173 5.32618 26.8173 5.25074C26.8173 5.1753 26.8084 5.11243 26.7907 5.06213H22.6077C22.3412 5.16272 22.1281 5.31361 21.9682 5.51479L21.8084 5.9926C21.3643 7.14941 20.2009 8.93491 18.3181 11.3491C17.9451 11.6844 17.5099 11.8521 17.0126 11.8521Z" fill="currentColor"></path></svg><svg viewBox="0 0 28 22" fill="none" id="youtube"><path d="M17.8509 10.7927L12.6145 7.30184C12.5159 7.23691 12.4016 7.19985 12.2837 7.19459C12.1657 7.18934 12.0486 7.21608 11.9446 7.27198C11.8406 7.32789 11.7537 7.41087 11.693 7.51215C11.6324 7.61343 11.6002 7.72924 11.6 7.84729V14.8291C11.6001 14.9481 11.6327 15.0648 11.6942 15.1667C11.7557 15.2686 11.8438 15.3518 11.9491 15.4073C12.0524 15.4631 12.1691 15.4895 12.2864 15.4837C12.4037 15.478 12.5172 15.4402 12.6145 15.3746L17.8509 11.8837C17.9409 11.824 18.0148 11.7429 18.0658 11.6477C18.1169 11.5526 18.1436 11.4462 18.1436 11.3382C18.1436 11.2302 18.1169 11.1239 18.0658 11.0287C18.0148 10.9335 17.9409 10.8525 17.8509 10.7927ZM12.9091 13.6073V9.06911L16.3127 11.3382L12.9091 13.6073ZM25.3891 5.04366C25.2942 4.67547 25.1131 4.33511 24.8609 4.05061C24.6086 3.76611 24.2924 3.54561 23.9382 3.40729C20.2182 1.9782 14.2509 2.00002 14 2.00002C13.7491 2.00002 7.78182 1.9782 4.06182 3.40729C3.70764 3.54561 3.3914 3.76611 3.13914 4.05061C2.88689 4.33511 2.70584 4.67547 2.61091 5.04366C2.32727 6.11275 2 8.07638 2 11.3382C2 14.6 2.32727 16.5637 2.61091 17.6327C2.70584 18.0009 2.88689 18.3413 3.13914 18.6258C3.3914 18.9103 3.70764 19.1308 4.06182 19.2691C7.78182 20.6982 13.7491 20.6764 14 20.6764H14.0764C14.8291 20.6764 20.3927 20.6327 23.9382 19.2691C24.2924 19.1308 24.6086 18.9103 24.8609 18.6258C25.1131 18.3413 25.2942 18.0009 25.3891 17.6327C25.6727 16.5637 26 14.6 26 11.3382C26 8.07638 25.6727 6.11275 25.3891 5.04366ZM24.1236 17.3055C24.0807 17.472 23.999 17.6259 23.8853 17.7548C23.7715 17.8838 23.6289 17.984 23.4691 18.0473C19.9782 19.3891 14.0655 19.3673 14 19.3673C13.9345 19.3673 8.02182 19.3891 4.53091 18.0473C4.37107 17.984 4.22846 17.8838 4.11471 17.7548C4.00096 17.6259 3.91929 17.472 3.87636 17.3055C3.61455 16.3018 3.30909 14.4582 3.30909 11.3382C3.30909 8.2182 3.61455 6.37457 3.87636 5.37093C3.91929 5.20445 4.00096 5.05047 4.11471 4.92156C4.22846 4.79264 4.37107 4.69243 4.53091 4.62911C8.02182 3.28729 13.9345 3.30911 14 3.30911C14.0655 3.30911 19.9782 3.28729 23.4691 4.62911C23.6289 4.69243 23.7715 4.79264 23.8853 4.92156C23.999 5.05047 24.0807 5.20445 24.1236 5.37093C24.3855 6.37457 24.6909 8.2182 24.6909 11.3382C24.6909 14.4582 24.3855 16.3018 24.1236 17.3055Z" fill="currentColor"></path></svg><svg viewBox="0 0 124 34" fill="none" id="zigzag-fill-desktop"><path d="M1186.8 0C1171.15 0 1171.15 14 1155.61 14C1140.07 14 1139.96 0 1124.41 0C1108.87 0 1108.76 14 1093.22 14C1077.57 14 1077.57 0 1061.91 0C1046.26 0 1046.26 14 1030.72 14C1015.07 14 1015.07 0 999.522 0C983.87 0 983.87 14 968.326 14C952.783 14 952.348 0 936.804 0C921.152 0 921.152 14 905.609 14C890.065 14 889.848 0 874.304 0C858.652 0 858.652 14 843.109 14C827.456 14 827.456 0 811.804 0C796.152 0 796.152 14 780.609 14C764.956 14 764.957 0 749.413 0C733.87 0 733.652 14 718 14C702.348 14 702.348 0 686.804 0C671.152 0 671.152 14 655.609 14C639.956 14 639.956 0 624.304 0C608.652 0 608.652 14 593.109 14C577.456 14 577.457 0 561.913 0C546.261 0 546.261 14 530.717 14C515.065 14 515.065 0 499.522 0C483.87 0 483.87 14 468.217 14C452.565 14 452.565 0 436.913 0C421.261 0 421.261 14 405.609 14C389.957 14 389.956 0 374.304 0C358.652 0 358.652 14 343 14C327.348 14 327.348 0 311.696 0C296.043 0 296.043 14 280.391 14C264.739 14 264.739 0 249.087 0C233.435 0 233.435 14 217.891 14C202.239 14 202.239 0 186.587 0C170.935 0 170.935 14 155.283 14C139.63 14 139.63 0 123.978 0C108.326 0 108.326 14 92.6739 14C77.0217 14 77.0217 0 61.3696 0C46.1522 0 46.1522 14 30.5 14C14.8478 14 14.8478 0 -0.695654 0C-16.2391 0 -16.3478 14 -32 14V34H1218V14C1202.35 14 1202.35 0 1186.8 0Z" fill="white"></path></svg><svg viewBox="0 0 768 24" fill="none" id="zigzag-fill-tablet"><path d="M749.783 0C740.142 0 740.142 9.88235 730.567 9.88235C720.992 9.88235 720.925 0 711.35 0C701.776 0 701.709 9.88235 692.134 9.88235C682.492 9.88235 682.492 0 672.85 0C663.209 0 663.209 9.88235 653.634 9.88235C643.992 9.88235 643.992 0 634.417 0C624.776 0 624.776 9.88235 615.201 9.88235C605.626 9.88235 605.358 0 595.783 0C586.142 0 586.142 9.88235 576.567 9.88235C566.992 9.88235 566.858 0 557.283 0C547.642 0 547.642 9.88235 538.067 9.88235C528.425 9.88235 528.425 0 518.783 0C509.142 0 509.142 9.88235 499.567 9.88235C489.925 9.88235 489.925 0 480.35 0C470.776 0 470.642 9.88235 461 9.88235C451.358 9.88235 451.358 0 441.783 0C432.142 0 432.142 9.88235 422.567 9.88235C412.925 9.88235 412.925 0 403.283 0C393.642 0 393.642 9.88235 384.067 9.88235C374.425 9.88235 374.425 0 364.85 0C355.209 0 355.209 9.88235 345.634 9.88235C335.992 9.88235 335.992 0 326.417 0C316.776 0 316.776 9.88235 307.134 9.88235C297.492 9.88235 297.492 0 287.85 0C278.209 0 278.209 9.88235 268.567 9.88235C258.925 9.88235 258.925 0 249.283 0C239.642 0 239.642 9.88235 230 9.88235C220.358 9.88235 220.358 0 210.717 0C201.075 0 201.075 9.88235 191.433 9.88235C181.791 9.88235 181.791 0 172.15 0C162.508 0 162.508 9.88235 152.933 9.88235C143.291 9.88235 143.291 0 133.65 0C124.008 0 124.008 9.88235 114.366 9.88235C104.724 9.88235 104.724 0 95.0826 0C85.4409 0 85.4409 9.88235 75.7991 9.88235C66.1574 9.88235 66.1574 0 56.5157 0C47.1417 0 47.1417 9.88235 37.5 9.88235C27.8583 9.88235 27.8583 0 18.2835 0C8.70869 0 8.64174 9.88235 -1 9.88235V24H769V9.88235C759.358 9.88235 759.358 0 749.783 0Z" fill="white"></path></svg><svg viewBox="0 0 320 6" fill="none" id="zigzag-line"><path d="M320 6C317.496 6 316.188 4.8 315.13 3.83478C314.184 2.97391 313.489 2.34783 312.014 2.34783C310.511 2.34783 309.843 2.97391 308.897 3.83478C307.84 4.8 306.532 6 304.028 6C301.523 6 300.216 4.8 299.158 3.83478C298.212 2.97391 297.517 2.34783 296.042 2.34783C294.567 2.34783 293.871 2.97391 292.925 3.83478C291.868 4.8 290.56 6 288.056 6C285.551 6 284.243 4.8 283.186 3.83478C282.24 2.97391 281.544 2.34783 280.07 2.34783C278.567 2.34783 277.899 2.97391 276.953 3.83478C275.896 4.8 274.588 6 272.083 6C269.579 6 268.271 4.8 267.214 3.83478C266.268 2.97391 265.572 2.34783 264.097 2.34783C262.595 2.34783 261.927 2.97391 260.981 3.83478C259.812 4.8 258.504 6 256 6C253.496 6 252.188 4.8 251.13 3.83478C250.184 2.97391 249.489 2.34783 248.014 2.34783C246.511 2.34783 245.843 2.97391 244.897 3.83478C243.84 4.8 242.532 6 240.028 6C237.523 6 236.216 4.8 235.158 3.83478C234.212 2.97391 233.517 2.34783 232.042 2.34783C230.539 2.34783 229.871 2.97391 228.925 3.83478C227.812 4.8 226.504 6 224 6C221.496 6 220.188 4.8 219.13 3.83478C218.184 2.97391 217.489 2.34783 216.014 2.34783C214.511 2.34783 213.843 2.97391 212.897 3.83478C211.84 4.8 210.532 6 208.028 6C205.523 6 204.216 4.8 203.158 3.83478C202.212 2.97391 201.517 2.34783 200.042 2.34783C198.567 2.34783 197.871 2.97391 196.925 3.83478C195.84 4.8 194.504 6 192 6C189.496 6 188.188 4.8 187.13 3.83478C186.184 2.97391 185.489 2.34783 184.014 2.34783C182.511 2.34783 181.843 2.97391 180.897 3.83478C179.84 4.8 178.532 6 176.028 6C173.523 6 172.216 4.8 171.158 3.83478C170.212 2.97391 169.517 2.34783 168.042 2.34783C166.539 2.34783 165.871 2.97391 164.925 3.83478C163.868 4.8 162.56 6 160.056 6C157.551 6 156.243 4.8 155.186 3.83478C154.24 2.97391 153.544 2.34783 152.07 2.34783C150.595 2.34783 149.899 2.97391 148.953 3.83478C147.896 4.8 146.588 6 144.083 6C141.579 6 140.271 4.8 139.214 3.83478C138.268 2.97391 137.572 2.34783 136.097 2.34783C134.595 2.34783 133.927 2.97391 132.981 3.83478C131.923 4.8 130.616 6 128.111 6C125.607 6 124.299 4.8 123.242 3.83478C122.296 2.97391 121.6 2.34783 120.125 2.34783C118.623 2.34783 117.955 2.97391 117.009 3.83478C115.951 4.8 114.643 6 112.139 6C109.635 6 108.327 4.8 107.27 3.83478C106.323 2.97391 105.628 2.34783 104.153 2.34783C102.65 2.34783 101.983 2.97391 101.037 3.83478C99.9791 4.8 98.6713 6 96.167 6C93.6626 6 92.3548 4.8 91.2974 3.83478C90.3513 2.97391 89.6556 2.34783 88.1809 2.34783C86.7061 2.34783 86.0104 2.97391 85.0643 3.83478C84.007 4.8 82.6991 6 80.1948 6C77.6904 6 76.3826 4.8 75.3252 3.83478C74.3791 2.97391 73.6835 2.34783 72.2087 2.34783C70.7061 2.34783 70.0383 2.97391 69.0922 3.83478C68.0348 4.8 66.727 6 64.2226 6C61.7183 6 60.4104 4.8 59.353 3.83478C58.407 2.97391 57.7113 2.34783 56.2365 2.34783C54.7339 2.34783 54.0661 2.97391 53.12 3.83478C52.0626 4.8 50.7548 6 48.2504 6C45.7461 6 44.4383 4.8 43.3809 3.83478C42.4348 2.97391 41.7391 2.34783 40.2643 2.34783C38.7617 2.34783 38.0939 2.97391 37.1478 3.83478C35.84 4.8 34.5043 6 32 6C29.4957 6 28.1878 4.8 27.1304 3.83478C26.1843 2.97391 25.4887 2.34783 24.0139 2.34783C22.5113 2.34783 21.8435 2.97391 20.8974 3.83478C19.84 4.8 18.5322 6 16.0278 6C13.5235 6 12.2157 4.8 11.1583 3.83478C10.1843 2.97391 9.4887 2.34783 8.01391 2.34783C6.5113 2.34783 5.84348 2.97391 4.89739 3.83478C3.81217 4.8 2.50435 6 0 6V3.65217C1.50261 3.65217 2.17043 3.02609 3.11652 2.16522C4.17391 1.2 5.48174 0 8.01391 0C10.5183 0 11.8261 1.2 12.8835 2.16522C13.8296 3.02609 14.5252 3.65217 16 3.65217C17.5026 3.65217 18.1704 3.02609 19.1165 2.16522C20.1739 1.2 21.5096 0 24.0139 0C26.5183 0 27.8261 1.2 28.8835 2.16522C29.8296 3.02609 30.5252 3.65217 32 3.65217C33.5026 3.65217 34.1704 3.02609 35.1165 2.16522C36.1739 1.2 37.4817 0 39.9861 0C42.4904 0 43.7983 1.2 44.8556 2.16522C45.8017 3.02609 46.4974 3.65217 47.9722 3.65217C49.4748 3.65217 50.1426 3.02609 51.0887 2.16522C52.1461 1.2 53.4539 0 55.9583 0C58.4626 0 59.7704 1.2 60.8278 2.16522C61.7739 3.02609 62.4696 3.65217 63.9443 3.65217C65.447 3.65217 66.1148 3.02609 67.0609 2.16522C68.1183 1.2 69.4261 0 71.9304 0C74.4348 0 75.7426 1.2 76.8 2.16522C77.7461 3.02609 78.4417 3.65217 79.9165 3.65217C81.4191 3.65217 82.087 3.02609 83.033 2.16522C84.0904 1.2 85.3983 0 87.9026 0C90.407 0 91.7148 1.2 92.7722 2.16522C93.7183 3.02609 94.4139 3.65217 95.8887 3.65217C97.3913 3.65217 98.0591 3.02609 99.0052 2.16522C100.063 1.2 101.37 0 103.875 0C106.379 0 107.687 1.2 108.744 2.16522C109.69 3.02609 110.386 3.65217 111.861 3.65217C113.336 3.65217 114.031 3.02609 114.977 2.16522C116.035 1.2 117.343 0 119.847 0C122.351 0 123.659 1.2 124.717 2.16522C125.663 3.02609 126.358 3.65217 127.833 3.65217C129.336 3.65217 130.003 3.02609 130.95 2.16522C132.007 1.2 133.315 0 135.819 0C138.323 0 139.631 1.2 140.689 2.16522C141.635 3.02609 142.33 3.65217 143.805 3.65217C145.308 3.65217 145.976 3.02609 146.922 2.16522C147.979 1.2 149.287 0 151.791 0C154.296 0 155.603 1.2 156.661 2.16522C157.607 3.02609 158.303 3.65217 159.777 3.65217C161.28 3.65217 161.948 3.02609 162.894 2.16522C163.951 1.2 165.259 0 167.763 0C170.268 0 171.576 1.2 172.633 2.16522C173.579 3.02609 174.275 3.65217 175.75 3.65217C177.252 3.65217 177.92 3.02609 178.866 2.16522C179.923 1.2 181.231 0 183.736 0C186.24 0 187.548 1.2 188.605 2.16522C189.551 3.02609 190.247 3.65217 191.722 3.65217C193.224 3.65217 193.892 3.02609 194.838 2.16522C195.896 1.2 197.203 0 199.708 0C202.212 0 203.52 1.2 204.577 2.16522C205.523 3.02609 206.219 3.65217 207.694 3.65217C209.197 3.65217 209.864 3.02609 210.81 2.16522C211.868 1.2 213.176 0 215.68 0C218.184 0 219.492 1.2 220.55 2.16522C221.496 3.02609 222.191 3.65217 223.666 3.65217C225.169 3.65217 225.837 3.02609 226.783 2.16522C228.174 1.2 229.482 0 232.014 0C234.518 0 235.826 1.2 236.883 2.16522C237.83 3.02609 238.525 3.65217 240 3.65217C241.475 3.65217 242.17 3.02609 243.117 2.16522C244.174 1.2 245.482 0 247.986 0C250.49 0 251.798 1.2 252.856 2.16522C253.802 3.02609 254.497 3.65217 255.972 3.65217C257.447 3.65217 258.143 3.02609 259.089 2.16522C260.174 1.2 261.482 0 264.014 0C266.546 0 267.826 1.2 268.883 2.16522C269.83 3.02609 270.525 3.65217 272 3.65217C273.475 3.65217 274.17 3.02609 275.117 2.16522C276.174 1.2 277.482 0 279.986 0C282.49 0 283.798 1.2 284.856 2.16522C285.802 3.02609 286.497 3.65217 287.972 3.65217C289.475 3.65217 290.143 3.02609 291.089 2.16522C292.146 1.2 293.454 0 295.958 0C298.463 0 299.77 1.2 300.828 2.16522C301.774 3.02609 302.47 3.65217 303.944 3.65217C305.419 3.65217 306.115 3.02609 307.061 2.16522C308.118 1.2 309.426 0 311.93 0C314.435 0 315.743 1.2 316.8 2.16522C317.746 3.02609 318.442 3.65217 319.917 3.65217V6H320Z" fill="#F1F1F1"></path></svg></svg>